<svg width="27" height="27" fill="none" xmlns="http://www.w3.org/2000/svg"><g filter="url('#filter0_d_806_53815')"><g clip-path="url('#clip0_806_53815')"><g clip-path="url('#clip1_806_53815')"><path d="M21.5 11.5a8 8 0 1 0-16 0 8 8 0 0 0 16 0Z" stroke="#fff" stroke-miterlimit="10"/><path d="M13.29 14.16c.29 0 .51.08.69.25.18.17.26.38.26.64s-.09.47-.26.64c-.17.17-.4.25-.69.25-.29 0-.51-.08-.68-.25a.867.867 0 0 1-.26-.64c0-.26.09-.47.26-.64.17-.17.4-.25.68-.25Zm.7-.93h-1.41l-.2-5.91h1.8l-.2 5.91h.01Z" fill="#fff"/></g></g></g><defs><clipPath id="clip0_806_53815"><path fill="#fff" transform="translate(5 3)" d="M0 0h17v17H0z"/></clipPath><clipPath id="clip1_806_53815"><path fill="#fff" transform="translate(5 3)" d="M0 0h17v17H0z"/></clipPath><filter id="filter0_d_806_53815" x="0" y="0" width="27" height="27" filterUnits="userSpaceOnUse" color-interpolation-filters="sRGB"><feFlood flood-opacity="0" result="BackgroundImageFix"/><feColorMatrix in="SourceAlpha" values="0 0 0 0 0 0 0 0 0 0 0 0 0 0 0 0 0 0 127 0" result="hardAlpha"/><feOffset dy="2"/><feGaussianBlur stdDeviation="2.5"/><feComposite in2="hardAlpha" operator="out"/><feColorMatrix values="0 0 0 0 0 0 0 0 0 0 0 0 0 0 0 0 0 0 0.05 0"/><feBlend in2="BackgroundImageFix" result="effect1_dropShadow_806_53815"/><feBlend in="SourceGraphic" in2="effect1_dropShadow_806_53815" result="shape"/></filter></defs></svg>