<svg width="80" height="130" fill="none" xmlns="http://www.w3.org/2000/svg"><g opacity=".2" clip-path="url('#clip0_1318_14967')" fill="#fff"><path d="M19.88 33.91h10.77c2.81 0 5.09-2.28 5.09-5.09V18.05c0-2.81-2.28-5.09-5.09-5.09H19.88c-2.81 0-5.09 2.28-5.09 5.09v10.77c0 2.81 2.28 5.09 5.09 5.09Zm-1.09-15.86c0-.6.49-1.09 1.09-1.09h10.77c.6 0 1.09.49 1.09 1.09v10.77c0 .6-.49 1.09-1.09 1.09H19.88c-.6 0-1.09-.49-1.09-1.09V18.05ZM35.74 56.08V45.31c0-2.81-2.28-5.09-5.09-5.09H19.88c-2.81 0-5.09 2.28-5.09 5.09v10.77c0 2.81 2.28 5.09 5.09 5.09h10.77c2.81 0 5.09-2.28 5.09-5.09Zm-16.95 0V45.31c0-.6.49-1.09 1.09-1.09h10.77c.6 0 1.09.49 1.09 1.09v10.77c0 .6-.49 1.09-1.09 1.09H19.88c-.6 0-1.09-.49-1.09-1.09ZM44.97 23.44c0 1.1.9 2 2 2h32.14v-4H46.97c-1.1 0-2 .9-2 2ZM44.97 50.69c0 1.1.9 2 2 2h32.14v-4H46.97c-1.1 0-2 .9-2 2ZM29.41 101.37c0 11.25 5.06 21.33 13.02 28.1h6.78c-9.47-5.78-15.81-16.21-15.81-28.1 0-18.14 14.76-32.9 32.9-32.9 4.53 0 8.86.92 12.79 2.59v-4.3c-3.99-1.48-8.3-2.29-12.79-2.29-20.35 0-36.9 16.55-36.9 36.9h.01Z"/><path d="m50.45 112.34 16.02-27.12 12.64 21.6V98.9L68.2 80.27c-.36-.61-1.01-.99-1.72-.99s-1.36.37-1.72.98l-19.53 33.07c-.37.62-.37 1.38-.02 2.01.36.62 1.02 1.01 1.74 1.01h32.16v-4H50.45v-.01Z"/><path d="M64.39 94.25v7.79c0 1.1.9 2 2 2s2-.9 2-2v-7.79c0-1.1-.9-2-2-2s-2 .9-2 2ZM66.39 105.53c-1.47 0-2.66 1.19-2.66 2.66 0 1.47 1.19 2.66 2.66 2.66 1.47 0 2.66-1.19 2.66-2.66 0-1.47-1.19-2.66-2.66-2.66ZM4 4h75.1V0H2C1.47 0 .96.21.59.59.22.97 0 1.47 0 2v127.47h4V4Z"/></g><defs><clipPath id="clip0_1318_14967"><path fill="#fff" d="M0 0h79.1v129.47H0z"/></clipPath></defs></svg>