<svg width="113" height="147" fill="none" xmlns="http://www.w3.org/2000/svg"><g opacity=".1"><mask id="mask0_1318_51538" style="mask-type:luminance" maskUnits="userSpaceOnUse" x="0" y="0" width="113" height="147"><path d="M103 0H8.45A8.45 8.45 0 0 0 0 8.45v129.6a8.45 8.45 0 0 0 8.45 8.45L107 146c5 0 6-3 6-6.5V8.5c0-4.667-3-8.5-10-8.5Z" fill="#fff"/></mask><g mask="url('#mask0_1318_51538')"><path d="M63.2 115.68h38.95M63.2 124.23h38.95M63.2 131.79h38.95" stroke="#fff" stroke-width="4" stroke-linecap="round" stroke-linejoin="round"/><path d="M111.909 37.45c-5.83-.93-9.54-2.74-10.45-5.08-.93-2.38 1.11-5.04 1.17-5.12a2.003 2.003 0 0 0-1.56-3.25h-78.47c-4.16 0-7.38 1.31-9.58 3.91-3.71 4.38-3.03 10.86-2.86 12.04v103.84c0 3.33 1.11 5.91 3.3 7.65 2.32 1.85 5.41 2.3 7.91 2.3 1.94 0 3.52-.28 4.11-.39h86.12c1.1 0 2-.9 2-2V39.43c0-.98-.71-1.82-1.68-1.97l-.01-.01ZM22.589 28h75.17c-.56 1.62-.86 3.67-.04 5.79.97 2.53 3.29 4.51 6.91 5.9h-84.16c-1.78 0-3.02-.49-3.8-1.49-1.55-1.98-1.2-5.68-.87-7.36.09-.12.18-.25.28-.37 1.41-1.65 3.6-2.48 6.52-2.48l-.01.01Zm2.67 121.34c-.15 0-.3.02-.45.05-1.63.37-6.39.89-8.88-1.1-1.2-.96-1.78-2.44-1.78-4.52V41.37c1.2 1.18 3.16 2.32 6.32 2.32h5.73v105.65h-.94Zm4.94 0V43.7h79.4v105.65h-79.4v-.01Z" fill="#fff"/><path d="M82.67 107.21c10.753 0 19.47-8.717 19.47-19.47 0-10.753-8.717-19.47-19.47-19.47-10.753 0-19.47 8.717-19.47 19.47 0 10.753 8.717 19.47 19.47 19.47Z" stroke="#fff" stroke-width="4" stroke-linecap="round" stroke-linejoin="round"/><path d="M90.86 92.55c-.06-1.7-.86-3.3-2.17-4.37-1.26-1.03-2.82-1.6-4.01-1.92v-5.18c1.63.56 2.06 1.71 2.12 1.91a2.002 2.002 0 0 0 2.43 1.4 2.012 2.012 0 0 0 1.44-2.44c-.05-.19-1.13-4.11-5.99-4.99v-2.32c0-1.1-.9-2-2-2s-2 .9-2 2v2.2c-.91.12-1.97.38-2.93.95-1.79 1.06-2.91 3.01-2.98 5.22-.08 2.24.92 4.3 2.67 5.5.82.56 1.98.98 3.24 1.21v5.42c-.96-.49-2-1.4-2.52-3.07a1.995 1.995 0 0 0-2.5-1.32 1.987 1.987 0 0 0-1.32 2.5c1.25 4.07 4.29 5.58 6.34 6.14v1.78c0 1.1.9 2 2 2s2-.9 2-2v-1.69c1.83-.45 3.39-1.43 4.3-2.3a6.06 6.06 0 0 0 1.88-4.62v-.01Zm-11.17-7.33c-.62-.42-.97-1.2-.94-2.07.03-.84.41-1.56 1.02-1.92.26-.15.57-.26.89-.33v4.73c-.45-.13-.79-.28-.98-.41h.01Zm6.52 9.05c-.37.35-.92.72-1.54 1v-4.82c.54.21 1.07.47 1.48.81.43.36.69.86.71 1.43.02.59-.21 1.16-.65 1.57v.01Z" fill="#fff"/></g></g></svg>