<svg width="765" height="253" fill="none" xmlns="http://www.w3.org/2000/svg"><path d="M764 28H1M764 1H1M764 52H1M764 75H1M764 102H1M764 126H1M764 151H1M764 176H1M764 201H1M764 226H1M764 252H1M379 1v251M444 1v251M508 1v251M572 1v251M636 1v251M700 1v251M764 1v251M59 1v251M1 1v251M124 1v251M188 1v251M252 1v251M315 1v251" stroke="#02C0CE" stroke-miterlimit="10" stroke-dasharray="2 6"/><path fill="#D9D9D9" d="M15 1h30v251H15zM75 1h30v251H75zM139 1h30v251h-30zM204 1h30v251h-30zM270 1h30v251h-30zM331 1h30v251h-30zM395 1h30v251h-30zM459 1h30v251h-30zM524 1h30v251h-30zM588 1h30v251h-30zM652 1h30v251h-30zM715 1h30v251h-30z"/><path fill="#02C0CE" d="M15 136h30v116H15zM75 62h30v190H75zM139 22h30v230h-30zM204 32h30v220h-30zM270 136h30v116h-30zM331 62h30v190h-30zM395 22h30v230h-30zM459 32h30v220h-30zM524 136h30v116h-30zM588 62h30v190h-30zM652 22h30v230h-30zM715 32h30v220h-30z"/></svg>