<svg width="767" height="253" fill="none" xmlns="http://www.w3.org/2000/svg"><path d="M766 28H1.093M766 1H1.093M766 52H1.093M766 75H1.093M766 102H1.093M766 126H1.093M766 151H1.093M766 176H1.093M766 201H1.093M766 226H1.093M766 252H1.093M380.038 1v251M445.2 1v251M509.36 1v251M573.521 1v251M637.681 1v251M701.84 1v251M766 1v251M59.237 1v251M1.093 1v251M124.4 1v251M188.561 1v251M252.721 1v251M315.878 1v251" stroke="#02C0CE" stroke-miterlimit="10" stroke-dasharray="2 6"/><path fill="#D9D9D9" d="M15 1h30v251H15zM75 1h30v251H75zM139 1h30v251h-30zM204 1h30v251h-30zM270 1h30v251h-30zM331 1h30v251h-30zM395 1h30v251h-30zM459 1h30v251h-30zM524 1h30v251h-30zM588 1h30v251h-30zM652 1h30v251h-30zM715 1h30v251h-30z"/><path fill="#02C0CE" d="M15 136h30v116H15zM75 62h30v190H75zM139 22h30v230h-30zM204 32h30v220h-30zM270 136h30v116h-30zM331 62h30v190h-30zM395 22h30v230h-30zM459 32h30v220h-30zM524 136h30v116h-30zM588 62h30v190h-30zM652 22h30v230h-30zM715 32h30v220h-30z"/></svg>