<svg width="137" height="147" fill="none" xmlns="http://www.w3.org/2000/svg"><g opacity=".5"><mask id="mask0_1318_652" style="mask-type:luminance" maskUnits="userSpaceOnUse" x="0" y="0" width="137" height="147"><path d="M128.58 0H8.13A8.13 8.13 0 0 0 0 8.13v130.24a8.13 8.13 0 0 0 8.13 8.13h120.45a8.13 8.13 0 0 0 8.13-8.13V8.13A8.13 8.13 0 0 0 128.58 0Z" fill="#fff"/></mask><g opacity=".2" stroke="#fff" stroke-width="4" stroke-linecap="round" stroke-linejoin="round" mask="url('#mask0_1318_652')"><path d="M115.93 174.01c38.649 0 69.98-31.331 69.98-69.98s-31.331-69.98-69.98-69.98-69.98 31.331-69.98 69.98 31.331 69.98 69.98 69.98Z"/><path d="M116.2 90.21 83.26 58.08l-13.28 13.6 32.05 32.29-31.63 33.17 13.16 13.7 32.09-32.9 33.37 32.48 13.75-13.86-33-32.26 32.54-32.93-14.03-13.72-32.08 32.56Z"/></g></g></svg>