<svg width="292" height="292" fill="none" xmlns="http://www.w3.org/2000/svg"><g clip-path="url('#clip0_806_54157')"><path d="m202.321 11.58-56.14 133.69 133.79 55.87c30.52-73.77-4.13-158.39-77.66-189.56h.01Z" fill="#02C0CE"/><path d="M164.96 289.75c49.38-6.7 94.04-38.6 114.73-87.88.1-.24.19-.49.3-.73L146.2 145.27 1.19 164.03c6.42 49.75 38.42 94.84 88.01 115.66 24.82 10.42 50.89 13.43 75.76 10.06Z" fill="#B7B7B7"/><path d="M201.86 11.39C127.77-19.73 42.49 15.12 11.38 89.21c-10.29 24.5-13.36 50.23-10.19 74.82C14.16 253.46 89.82 279.5 89.82 279.5l56.37-134.23 56.13-133.69c-.15-.07-.3-.13-.46-.2v.01Z" fill="#2D7BF4"/></g><defs><clipPath id="clip0_806_54157"><path fill="#fff" d="M0 0h291.06v291.07H0z"/></clipPath></defs></svg>