<svg width="17" height="17" fill="none" xmlns="http://www.w3.org/2000/svg"><g clip-path="url('#clip0_1295_814')"><g clip-path="url('#clip1_1295_814')"><path d="M16.5 8.5a8 8 0 1 0-16 0 8 8 0 0 0 16 0Z" stroke="#fff" stroke-miterlimit="10"/><path d="M8.29 11.16c.29 0 .51.08.69.25.18.17.26.38.26.64s-.09.47-.26.64c-.17.17-.4.25-.69.25-.29 0-.51-.08-.68-.25a.867.867 0 0 1-.26-.64c0-.26.09-.47.26-.64.17-.17.4-.25.68-.25Zm.7-.93H7.58l-.2-5.91h1.8l-.2 5.91h.01Z" fill="#fff"/></g></g><defs><clipPath id="clip0_1295_814"><path fill="#fff" d="M0 0h17v17H0z"/></clipPath><clipPath id="clip1_1295_814"><path fill="#fff" d="M0 0h17v17H0z"/></clipPath></defs></svg>