<svg width="291" height="291" fill="none" xmlns="http://www.w3.org/2000/svg"><g clip-path="url('#clip0_806_53712')"><path d="M0 145.5c0 26.58 7.13 51.49 19.58 72.94L146 145V0h-.5C65.14 0 0 65.14 0 145.5Z" fill="#2D7BF4"/><path d="M146 0v144.99l73.24 125.94c42.94-25.3 71.76-72 71.76-125.44C291 65.31 226.13.28 146 0ZM219.24 270.94 146 145l-28.39 143.31A146.45 146.45 0 0 0 145.5 291c26.92 0 52.12-7.32 73.74-20.06Z" fill="#02C0CE"/><path d="M19.58 218.44c20.72 35.69 56.17 61.75 98.03 69.88L146 145.01 19.58 218.44Z" fill="#2D7BF4"/></g><defs><clipPath id="clip0_806_53712"><path fill="#fff" d="M0 0h291v291H0z"/></clipPath></defs></svg>