<svg width="25" height="25" fill="none" xmlns="http://www.w3.org/2000/svg"><g clip-path="url('#clip0_806_53809')"><path d="M12.5 24.5c6.627 0 12-5.373 12-12s-5.373-12-12-12-12 5.373-12 12 5.373 12 12 12Z" stroke="#3F3F3F" stroke-linecap="round" stroke-linejoin="round"/><path d="M12.5 8a1.5 1.5 0 1 0 0-3 1.5 1.5 0 0 0 0 3ZM12.5 14a1.5 1.5 0 1 0 0-3 1.5 1.5 0 0 0 0 3ZM12.5 20a1.5 1.5 0 1 0 0-3 1.5 1.5 0 0 0 0 3Z" fill="#3F3F3F"/></g><defs><clipPath id="clip0_806_53809"><path fill="#fff" d="M0 0h25v25H0z"/></clipPath></defs></svg>