<svg width="1002" height="1019" fill="none" xmlns="http://www.w3.org/2000/svg"><g opacity=".41" fill="#CECECE"><path d="M617.53 42.41C617.53 18.98 598.55 0 575.12 0c-23.43 0-42.51 18.98-42.51 42.41 0 23.43 18.98 42.51 42.51 42.51 23.53 0 42.41-19.08 42.41-42.51ZM496.88 267.68c0-23.43-18.98-42.41-42.41-42.41-23.43 0-42.51 18.98-42.51 42.41 0 23.43 18.98 42.51 42.51 42.51 23.43-.11 42.41-19.08 42.41-42.51ZM468.79 886.05c0-23.43-18.98-42.41-42.41-42.41-23.43 0-42.41 18.98-42.41 42.41 0 23.43 18.98 42.51 42.41 42.51 23.32-.11 42.41-19.08 42.41-42.51Z"/><path d="M500.91 1018.78C224.75 1018.78 0 794.04 0 517.77S224.75 16.86 500.91 16.86v51.42c-247.86 0-449.6 201.64-449.6 449.6 0 247.96 201.64 449.6 449.6 449.6 247.96 0 449.6-201.64 449.6-449.6 0-92.66-28.09-181.71-81.21-257.61l42.09-29.47c59.26 84.49 90.54 183.83 90.54 287.08 0 276.16-224.75 500.91-501.02 500.91v-.01Z"/><path d="M500.91 911.71v-51.42c188.81 0 342.53-153.61 342.53-342.53 0-188.92-153.61-342.53-342.53-342.53-188.92 0-342.53 153.61-342.53 342.53 0 70.6 21.41 138.45 61.91 196.23l-42.09 29.47c-46.54-66.47-71.13-144.5-71.13-225.7 0-217.22 176.72-393.94 393.94-393.94s393.94 176.72 393.94 393.94C894.84 734.98 718.12 911.7 500.9 911.7l.01.01Z"/><path d="M501.23 791.92c-27.88 0-55.87-4.24-83.11-12.93-69.76-22.16-126.79-70.07-160.4-135.06-33.71-64.99-40.07-139.19-17.92-208.95 22.16-69.76 70.07-126.69 135.06-160.4l23.64 45.59c-52.79 27.35-91.81 73.68-109.72 130.29-18.02 56.72-12.83 116.93 14.52 169.83 27.35 52.79 73.68 91.81 130.4 109.72 56.72 18.02 117.04 12.83 169.73-14.52 108.98-56.5 151.7-191.14 95.2-300.12-21.1-40.71-53.75-73.47-94.46-94.78L628.02 275c50.04 26.19 90.22 66.47 116.19 116.61 69.54 134.11 16.96 299.91-117.14 369.35-39.54 20.67-82.48 30.96-125.84 30.96Z"/></g></svg>